<?xml version="1.0" encoding="UTF-8"?>
<svg id="Capa_1" data-name="Capa 1" xmlns="http://www.w3.org/2000/svg" xmlns:xlink="http://www.w3.org/1999/xlink" viewBox="0 0 277.79 232.85">
  <defs>
    <style>
      .cls-1 {
        fill: url(#Degradado_sin_nombre_35);
      }
    </style>
    <radialGradient id="Degradado_sin_nombre_35" data-name="Degradado sin nombre 35" cx="135.15" cy="116.43" fx="135.15" fy="116.43" r="57.48" gradientUnits="userSpaceOnUse">
      <stop offset="0" stop-color="#90e0ef"/>
      <stop offset=".13" stop-color="#85dced"/>
      <stop offset=".36" stop-color="#6ad4e8"/>
      <stop offset=".65" stop-color="#3dc6e1"/>
      <stop offset="1" stop-color="#00b4d8"/>
      <stop offset="1" stop-color="#00b4d8"/>
    </radialGradient>
  </defs>
  <path class="cls-1" d="M120.67,133.65c.06,1.19-.23,2.49.38,3.58.25.45,3.06,3.31,3.46,2.9.2-2.42-1.14-6.17-.61-8.41.33-1.39,3.49-3.84,4.69-4.9,3.09-2.75,6.31-5.39,9.49-8.04.29-.04.5.06.73.23,1.15.86,4,13.14,5.16,15.22,1.43,1.93,4.82-2.09,4.91-3.68-.07-6.41-1.43-12.81-1.94-19.21.14-1.33,2.57-3.65,3.45-4.95s3-4.8,2.94-6.19c-.17-3.99-6.26-.11-7.76.88-1.1.72-3.94,3.39-4.86,3.54-.55.09-1.33.04-1.9.01-4.97-.25-10.39-1.7-15.35-1.91-1.5-.07-2.36-.06-3.72.59-1.23.59-3.81,3.06-2.38,4.32,4.46,1.97,10.09,2.76,14.45,4.74.44.2,1.12.43,1.13,1.02l-.48.97c-3.46,3.44-6.35,7.67-9.71,11.16-.5.52-1.4,1.55-1.96,1.88-1.81,1.06-5.92-.14-8.11-.22-.49-.02-.98-.09-1.32.37,1.48,1.23,2.42,3.2,4.46,3.45.63.08,1.26.01,1.9.03.24,0,.81-.13.48.24-17.2,8.43-41.77,4.21-40.43-19.32,2.06-36.21,38.91-60.59,73.4-50.83,46.45,13.14,56.53,75.49,16.72,102.81-13.01,8.93-40.67,17.7-49.14-1.33-3.21-7.21-2.94-21.74,1.3-28.52.19-.3.23-.51.66-.42Z"/>
</svg>