<svg width="128" height="128" viewBox="0 0 128 128" fill="none" xmlns="http://www.w3.org/2000/svg">
  <rect width="128" height="128" rx="28" fill="#0F172A"/>
  <path d="M28 82C28 79.7909 29.7909 78 32 78H96C98.2091 78 100 79.7909 100 82V92C100 94.2091 98.2091 96 96 96H32C29.7909 96 28 94.2091 28 92V82Z" fill="#22C55E"/>
  <path d="M28 54C28 51.7909 29.7909 50 32 50H74C76.2091 50 78 51.7909 78 54V64C78 66.2091 76.2091 68 74 68H32C29.7909 68 28 66.2091 28 64V54Z" fill="#E5E7EB"/>
  <path d="M28 30C28 27.7909 29.7909 26 32 26H56C58.2091 26 60 27.7909 60 30V40C60 42.2091 58.2091 44 56 44H32C29.7909 44 28 42.2091 28 40V30Z" fill="#94A3B8"/>
  <circle cx="90" cy="36" r="14" fill="#22C55E"/>
  <path d="M84 36L89 41L97 31" stroke="#0F172A" stroke-width="6" stroke-linecap="round" stroke-linejoin="round"/>
</svg>
